<?xml version="1.0" encoding="utf-8"?>
<!-- Generator: Adobe Illustrator 18.0.0, SVG Export Plug-In . SVG Version: 6.00 Build 0)  -->
<!DOCTYPE svg PUBLIC "-//W3C//DTD SVG 1.1//EN" "http://www.w3.org/Graphics/SVG/1.1/DTD/svg11.dtd">
<svg version="1.1" id="图层_1" xmlns="http://www.w3.org/2000/svg" xmlns:xlink="http://www.w3.org/1999/xlink" x="0px" y="0px"
	 viewBox="0 0 40 38" enable-background="new 0 0 40 38" xml:space="preserve">
<g>
	<path fill="#FFFFFF" stroke="#CACCD3" stroke-width="2" stroke-miterlimit="10" d="M35.643,8.922V3.325
		c0-1.235-1.001-2.235-2.235-2.235H6.592c-1.235,0-2.235,1.001-2.235,2.235v5.598H3.238C2.002,8.922,1,9.924,1,11.16v23.501
		c0,1.235,1.001,2.235,2.235,2.235H4.59h3.357h24.572h3.357h0.889c1.235,0,2.235-1.001,2.235-2.235V11.16
		c0-1.236-1.002-2.238-2.238-2.238H35.643z"/>
	<path fill="#FFFFFF" stroke="#CACCD3" stroke-width="2" stroke-miterlimit="10" d="M4.335,36.91"/>
	<path fill="#FFFFFF" stroke="#CACCD3" stroke-miterlimit="10" d="M4.349,9.419h1.097c1.236,0,2.238,1.002,2.238,2.238v18.46
		c0,0.309,0.25,0.559,0.559,0.559h23.475c0.309,0,0.559-0.25,0.559-0.559v-18.46c0-1.236,1.002-2.238,2.238-2.238h1.119"/>
</g>
</svg>
